<?xml version="1.0" encoding="utf-8"?>
<!-- Svg Vector Icons : http://www.onlinewebfonts.com/icon -->
<!DOCTYPE svg PUBLIC "-//W3C//DTD SVG 1.1//EN" "http://www.w3.org/Graphics/SVG/1.1/DTD/svg11.dtd">
<svg version="1.1" xmlns="http://www.w3.org/2000/svg" xmlns:xlink="http://www.w3.org/1999/xlink" x="0px" y="0px" viewBox="0 0 1000 1000" enable-background="new 0 0 1000 1000" xml:space="preserve">
<g><g transform="translate(0.000000,511.000000) scale(0.100000,-0.100000)"><path style="fill:#FFFFFF;" d="M4412.6,4984.9c-1869.4-235.7-3447.7-1511.3-4050.8-3279C10.5,675.3,12.8-482.5,368.6-1506.2c610.1-1747,2158.3-3004.1,3995.4-3246.7c309.6-39.3,905.8-46.2,1192.4-11.6C6681.8-4628,7677.7-4145.1,8468-3354.8c790.3,790.3,1273.3,1786.2,1409.6,2911.6c34.7,286.6,27.7,882.7-11.6,1192.4C9574.9,2960.6,7855.7,4677.6,5625.7,4978C5360,5012.7,4671.4,5017.3,4412.6,4984.9z M5646.5,4675.3c1871.8-265.7,3410.8-1670.7,3840.6-3500.9c154.8-658.6,152.5-1467.4-2.3-2137.5c-385.9-1654.5-1753.9-3022.5-3408.4-3408.4c-670.1-154.8-1478.9-157.1-2137.5-2.3C2598.6-4059.6,1438.5-3123.7,842.4-1869C532.7-1217.3,403.3-641.9,403.3,111.4c0,744.1,136.3,1354.1,450.6,1998.8C1526.4,3496.8,2827.3,4453.4,4338.6,4673C4632.1,4716.9,5348.4,4716.9,5646.5,4675.3z"/><path style="fill:#FFFFFF;" d="M2887.4,2706.5c-208-108.6-242.6-198.7-242.6-654c0-402.1,25.4-494.5,159.4-607.7c97.1-80.9,159.4-90.1,605.4-80.9c379,6.9,383.6,6.9,466.8,71.6c154.8,117.9,166.4,161.8,166.4,619.3c0,404.4,0,406.7-64.7,501.4c-108.6,166.4-184.9,189.5-633.2,189.5C3037.6,2743.4,2942.9,2736.5,2887.4,2706.5z M3730.9,2401.4c11.6-25.4,23.1-187.2,23.1-358.2c0-420.6,11.6-406.7-399.8-406.7c-427.5,0-409-18.5-409,413.6c0,233.4,9.2,348.9,27.7,367.4c18.5,18.5,136.3,27.7,381.3,27.7C3677.7,2445.3,3707.8,2440.7,3730.9,2401.4z"/><path style="fill:#FFFFFF;" d="M4613.6,2184.2c-62.4-67-64.7-140.9-4.6-201c46.2-46.2,76.3-46.2,1421.1-46.2s1374.9,0,1421.1,46.2c62.4,62.4,57.8,143.3-6.9,203.3l-53.1,50.8H6027.8H4662.1L4613.6,2184.2z"/><path style="fill:#FFFFFF;" d="M2887.4,767.7c-205.7-106.3-242.6-203.3-242.6-656.3c0-411.3,25.4-501.5,175.6-614.7l85.5-67l411.3-6.9c376.7-6.9,418.3-4.6,503.8,41.6c53.2,25.4,122.5,90.1,157.1,143.3c62.4,92.4,64.7,108.6,71.6,446c11.6,480.6-27.7,603.1-228.8,704.8c-76.3,41.6-136.3,46.2-476,46.2C3037.6,804.7,2942.9,797.7,2887.4,767.7z M3721.6,471.9c46.2-64.7,46.2-656.3,0-721c-30-39.3-62.4-43.9-367.4-43.9c-247.3,0-342,6.9-369.7,32.4c-32.4,25.4-39.3,83.2-39.3,374.4c0,439.1-20.8,418.2,422.9,409C3654.6,515.8,3691.6,511.2,3721.6,471.9z"/><path style="fill:#FFFFFF;" d="M4574.3,217.7c-25.4-18.5-41.6-60.1-41.6-106.3c0-143.3-50.8-138.7,1465.1-138.7c1518.2,0,1453.5-6.9,1453.5,138.7c0,145.6,64.7,138.6-1453.5,138.6C4872.4,250.1,4609,245.4,4574.3,217.7z"/><path style="fill:#FFFFFF;" d="M3026.1-1122.5c-11.6-6.9-50.8-16.2-85.5-23.1c-90.1-20.8-203.3-124.8-251.9-233.4c-34.7-76.3-43.9-152.5-43.9-446c0-452.9,34.7-552.3,235.7-654c73.9-37,138.6-43.9,469.1-43.9c443.7,0,519.9,23.1,628.5,189.5c62.4,92.4,64.7,108.6,71.6,446c9.3,385.9-9.2,501.5-101.7,612.4c-110.9,131.7-171,147.9-552.3,154.8C3206.3-1117.9,3039.9-1117.9,3026.1-1122.5z M3707.8-1459.9c41.6-41.6,46.2-76.3,46.2-360.5c0-171-11.6-332.8-23.1-358.2c-23.1-39.3-53.1-43.9-376.7-43.9c-244.9,0-362.8,9.2-381.3,27.7c-18.5,18.5-27.7,134-27.7,367.4c0,432.1-18.5,413.6,409,413.6C3631.5-1413.7,3666.2-1418.3,3707.8-1459.9z"/><path style="fill:#FFFFFF;" d="M4613.6-1691c-99.4-41.6-110.9-198.7-18.5-258.8c13.9-9.2,644.7-18.5,1402.7-18.5c1305.6,0,1379.5,2.3,1414.2,41.6c48.5,53.2,50.8,143.3,6.9,203.4c-32.3,41.6-76.3,43.9-1393.4,48.5C5237.5-1672.5,4643.6-1679.5,4613.6-1691z"/></g></g>
</svg>